<svg xmlns="http://www.w3.org/2000/svg" width="679" height="86" viewBox="0 0 679 86"><path fill="#fff" d="M28.10 19.50L28.10 19.50Q32.70 19.50 36.70 21Q40.70 22.50 43.65 25.50Q46.60 28.50 48.25 33.10Q49.90 37.70 49.90 43.90L49.90 43.90Q49.90 50.20 48.20 54.80Q46.50 59.40 43.45 62.40Q40.40 65.40 36.10 66.85Q31.80 68.30 26.70 68.30L26.70 68.30Q21.80 68.30 17.85 67.15Q13.90 66 11.40 64.50L11.40 64.50Q9.30 63.20 8.50 61.95Q7.70 60.70 7.70 58.60L7.70 58.60L7.70 2.20Q8.20 2 9.25 1.75Q10.30 1.50 11.50 1.50L11.50 1.50Q15.70 1.50 15.70 5.10L15.70 5.10L15.70 23Q17.90 21.60 20.95 20.55Q24 19.50 28.10 19.50ZM26.90 26.10L26.90 26.10Q23.40 26.10 20.55 27.35Q17.70 28.60 15.70 30.30L15.70 30.30L15.70 58.60Q17.20 59.70 20.05 60.70Q22.90 61.70 26.70 61.70L26.70 61.70Q30.10 61.70 32.85 60.65Q35.60 59.60 37.60 57.40Q39.60 55.20 40.70 51.85Q41.80 48.50 41.80 43.90L41.80 43.90Q41.80 39.30 40.70 35.90Q39.60 32.50 37.60 30.35Q35.60 28.20 32.85 27.15Q30.10 26.10 26.90 26.10ZM105.30 43.90L105.30 43.90Q105.30 49.50 103.70 54Q102.10 58.50 99.15 61.70Q96.20 64.90 92 66.60Q87.80 68.30 82.60 68.30L82.60 68.30Q77.40 68.30 73.20 66.60Q69 64.90 66 61.70Q63.00 58.50 61.40 54Q59.80 49.50 59.80 43.90L59.80 43.90Q59.80 38.30 61.45 33.80Q63.10 29.30 66.10 26.10Q69.10 22.90 73.30 21.20Q77.50 19.50 82.60 19.50L82.60 19.50Q87.70 19.50 91.90 21.20Q96.10 22.90 99.05 26.10Q102 29.30 103.65 33.80Q105.30 38.30 105.30 43.90ZM82.60 26.10L82.60 26.10Q75.80 26.10 71.90 30.80Q68 35.50 68 43.90L68 43.90Q68 52.40 71.85 57.05Q75.70 61.70 82.60 61.70L82.60 61.70Q89.50 61.70 93.30 57Q97.10 52.30 97.10 43.90L97.10 43.90Q97.10 35.50 93.25 30.80Q89.40 26.10 82.60 26.10ZM149.70 36.90L149.70 36.90Q149.70 31.30 146.55 28.70Q143.40 26.10 138.10 26.10L138.10 26.10Q134.10 26.10 131.00 27.10Q127.90 28.10 125.70 29.40L125.70 29.40L125.70 66.80Q125.20 67 124.20 67.25Q123.20 67.50 122.00 67.50L122.00 67.50Q117.70 67.50 117.70 63.90L117.70 63.90L117.70 29.80Q117.70 27.70 118.55 26.35Q119.40 25 121.50 23.70L121.50 23.70Q124.10 22.10 128.40 20.80Q132.70 19.50 138.10 19.50L138.10 19.50Q147.20 19.50 152.45 23.60Q157.70 27.70 157.70 36.50L157.70 36.50L157.70 66.80Q157.20 67 156.15 67.25Q155.10 67.50 154.00 67.50L154.00 67.50Q149.70 67.50 149.70 63.90L149.70 63.90L149.70 36.90ZM215.60 43.90L215.60 43.90Q215.60 49.50 214.00 54Q212.40 58.50 209.45 61.70Q206.50 64.90 202.30 66.60Q198.10 68.30 192.90 68.30L192.90 68.30Q187.70 68.30 183.50 66.60Q179.30 64.90 176.30 61.70Q173.30 58.50 171.70 54Q170.10 49.50 170.10 43.90L170.10 43.90Q170.10 38.30 171.75 33.80Q173.40 29.30 176.40 26.10Q179.40 22.90 183.60 21.20Q187.80 19.50 192.90 19.50L192.90 19.50Q198.00 19.50 202.20 21.20Q206.40 22.90 209.35 26.10Q212.30 29.30 213.95 33.80Q215.60 38.30 215.60 43.90ZM192.90 26.10L192.90 26.10Q186.10 26.10 182.20 30.80Q178.30 35.50 178.30 43.90L178.30 43.90Q178.30 52.40 182.15 57.05Q186.00 61.70 192.90 61.70L192.90 61.70Q199.80 61.70 203.60 57Q207.40 52.30 207.40 43.90L207.40 43.90Q207.40 35.50 203.55 30.80Q199.70 26.10 192.90 26.10ZM230.80 25.20L230.80 25.20Q230.10 25.40 229.25 25.60Q228.40 25.80 227.50 25.80L227.50 25.80Q224.40 25.80 224.20 22.90L224.20 22.90L223.60 5.50Q224.40 5 225.35 4.75Q226.30 4.50 227.60 4.50L227.60 4.50Q231.40 4.50 231.40 8.50L231.40 8.50Q231.40 9.80 231.35 11.90Q231.30 14 231.20 16.35Q231.10 18.70 231.00 21.05Q230.90 23.40 230.80 25.20ZM274.50 54.70L274.50 54.70Q274.50 61.10 269.80 64.70Q265.10 68.30 256.20 68.30L256.20 68.30Q252.40 68.30 249.20 67.65Q246.00 67 243.75 65.95Q241.50 64.90 240.25 63.55Q239.00 62.20 239.00 60.80L239.00 60.80Q239.00 59.60 239.65 58.50Q240.30 57.40 241.60 56.60L241.60 56.60Q244.30 58.60 247.90 60.15Q251.50 61.70 256.10 61.70L256.10 61.70Q266.50 61.70 266.50 54.70L266.50 54.70Q266.50 49 259.60 47.30L259.60 47.30L251.30 45.10Q245.20 43.50 242.40 40.45Q239.60 37.40 239.60 32.60L239.60 32.60Q239.60 30 240.65 27.60Q241.70 25.20 243.90 23.40Q246.10 21.60 249.35 20.55Q252.60 19.50 257.00 19.50L257.00 19.50Q264.00 19.50 268.30 21.55Q272.60 23.60 272.60 26.30L272.60 26.30Q272.60 27.60 271.95 28.60Q271.30 29.60 270.20 30.10L270.20 30.10Q268.40 28.90 265.10 27.50Q261.80 26.10 257.30 26.10L257.30 26.10Q252.80 26.10 250.15 27.80Q247.50 29.50 247.50 32.60L247.50 32.60Q247.50 34.90 249.00 36.50Q250.50 38.10 254.00 38.90L254.00 38.90L260.90 40.60Q267.70 42.30 271.10 45.65Q274.50 49 274.50 54.70ZM326.30 68.30L326.30 68.30Q322.80 68.30 319.70 67.50Q316.60 66.70 314.60 65.60L314.60 65.60L314.60 85Q314.10 85.20 313.10 85.45Q312.10 85.70 310.90 85.70L310.90 85.70Q306.60 85.70 306.60 82L306.60 82L306.60 29.20Q306.60 27.20 307.30 26Q308 24.80 310.20 23.50L310.20 23.50Q312.90 22 316.65 20.75Q320.40 19.50 325.20 19.50L325.20 19.50Q330.10 19.50 334.45 20.90Q338.80 22.30 341.95 25.25Q345.10 28.20 346.95 32.80Q348.80 37.40 348.80 43.80L348.80 43.80Q348.80 50 347.15 54.60Q345.50 59.20 342.50 62.25Q339.50 65.30 335.35 66.80Q331.20 68.30 326.30 68.30ZM325.20 61.70L325.20 61.70Q332.20 61.70 336.45 57.45Q340.70 53.20 340.70 43.80L340.70 43.80Q340.70 38.90 339.45 35.50Q338.20 32.10 336.05 30Q333.90 27.90 331.10 27Q328.30 26.10 325.20 26.10L325.20 26.10Q321.60 26.10 319.10 27Q316.60 27.90 314.60 29L314.60 29L314.60 58.50Q316.50 59.90 319.10 60.80Q321.70 61.70 325.20 61.70ZM404.10 43.90L404.10 43.90Q404.10 49.50 402.50 54Q400.90 58.50 397.95 61.70Q395.00 64.90 390.80 66.60Q386.60 68.30 381.40 68.30L381.40 68.30Q376.20 68.30 372.00 66.60Q367.80 64.90 364.80 61.70Q361.80 58.50 360.20 54Q358.60 49.50 358.60 43.90L358.60 43.90Q358.60 38.30 360.25 33.80Q361.90 29.30 364.90 26.10Q367.90 22.90 372.10 21.20Q376.30 19.50 381.40 19.50L381.40 19.50Q386.50 19.50 390.70 21.20Q394.90 22.90 397.85 26.10Q400.80 29.30 402.45 33.80Q404.10 38.30 404.10 43.90ZM381.40 26.10L381.40 26.10Q374.60 26.10 370.70 30.80Q366.80 35.50 366.80 43.90L366.80 43.90Q366.80 52.40 370.65 57.05Q374.50 61.70 381.40 61.70L381.40 61.70Q388.30 61.70 392.10 57Q395.90 52.30 395.90 43.90L395.90 43.90Q395.90 35.50 392.05 30.80Q388.20 26.10 381.40 26.10ZM432.30 68.30L432.30 68.30Q425.30 68.30 420.95 65.20Q416.60 62.10 416.60 54.90L416.60 54.90L416.60 7.40Q417.10 7.20 418.15 6.95Q419.20 6.70 420.40 6.70L420.40 6.70Q424.60 6.70 424.60 10.30L424.60 10.30L424.60 21.80L441.00 21.80Q441.30 22.30 441.60 23.15Q441.90 24 441.90 25L441.90 25Q441.90 28.40 438.90 28.40L438.90 28.40L424.60 28.40L424.60 54.40Q424.60 58.40 426.85 60.05Q429.10 61.70 433.20 61.70L433.20 61.70Q434.90 61.70 437.00 61.10Q439.10 60.50 440.50 59.70L440.50 59.70Q441.10 60.30 441.60 61.20Q442.10 62.10 442.10 63.30L442.10 63.30Q442.10 65.50 439.50 66.90Q436.90 68.30 432.30 68.30ZM461.70 29.40L461.70 66.80Q461.20 67 460.20 67.25Q459.20 67.50 458.00 67.50L458.00 67.50Q453.70 67.50 453.70 63.90L453.70 63.90L453.70 30Q453.70 27.70 454.55 26.35Q455.40 25 457.40 23.70L457.40 23.70Q460.00 22 464.45 20.75Q468.90 19.50 474.50 19.50L474.50 19.50Q482.50 19.50 482.50 23.50L482.50 23.50Q482.50 24.50 482.20 25.35Q481.90 26.20 481.40 26.80L481.40 26.80Q480.40 26.60 478.80 26.40Q477.20 26.20 475.60 26.20L475.60 26.20Q471.00 26.20 467.50 27.15Q464.00 28.10 461.70 29.40L461.70 29.40ZM500.00 17.10L500.00 23.40L519.80 23.40Q520.10 23.90 520.40 24.70Q520.70 25.50 520.70 26.60L520.70 26.60Q520.70 29.90 517.60 29.90L517.60 29.90L500.10 29.90L500.10 66.80Q499.60 67 498.60 67.25Q497.60 67.50 496.40 67.50L496.40 67.50Q492.10 67.50 492.10 63.90L492.10 63.90L492.10 16.70Q492.10 7.90 496.85 3.95Q501.60 0 510.10 0L510.10 0Q515.80 0 519.05 1.50Q522.30 3 522.30 5.20L522.30 5.20Q522.30 7.40 520.60 8.90L520.60 8.90Q518.80 7.90 516.10 7.25Q513.40 6.60 510.90 6.60L510.90 6.60Q504.80 6.60 502.40 9.10Q500.00 11.60 500.00 17.10L500.00 17.10ZM574.70 43.90L574.70 43.90Q574.70 49.50 573.10 54Q571.50 58.50 568.55 61.70Q565.60 64.90 561.40 66.60Q557.20 68.30 552.00 68.30L552.00 68.30Q546.80 68.30 542.60 66.60Q538.40 64.90 535.40 61.70Q532.40 58.50 530.80 54Q529.20 49.50 529.20 43.90L529.20 43.90Q529.20 38.30 530.85 33.80Q532.50 29.30 535.50 26.10Q538.50 22.90 542.70 21.20Q546.90 19.50 552.00 19.50L552.00 19.50Q557.10 19.50 561.30 21.20Q565.50 22.90 568.45 26.10Q571.40 29.30 573.05 33.80Q574.70 38.30 574.70 43.90ZM552.00 26.10L552.00 26.10Q545.20 26.10 541.30 30.80Q537.40 35.50 537.40 43.90L537.40 43.90Q537.40 52.40 541.25 57.05Q545.10 61.70 552.00 61.70L552.00 61.70Q558.90 61.70 562.70 57Q566.50 52.30 566.50 43.90L566.50 43.90Q566.50 35.50 562.65 30.80Q558.80 26.10 552.00 26.10ZM595.90 66.80L595.90 66.80Q595.40 67 594.40 67.25Q593.40 67.50 592.20 67.50L592.20 67.50Q587.90 67.50 587.90 63.90L587.90 63.90L587.90 2.20Q588.40 2 589.45 1.75Q590.50 1.50 591.60 1.50L591.60 1.50Q595.90 1.50 595.90 5.10L595.90 5.10L595.90 66.80ZM620.20 24L620.20 66.80Q619.70 67 618.70 67.25Q617.70 67.50 616.50 67.50L616.50 67.50Q612.20 67.50 612.20 63.90L612.20 63.90L612.20 21Q612.70 20.80 613.75 20.55Q614.80 20.30 616 20.30L616 20.30Q620.20 20.30 620.20 24L620.20 24ZM611 6.20L611 6.20Q611 4.10 612.45 2.65Q613.90 1.20 616.20 1.20L616.20 1.20Q618.50 1.20 619.90 2.65Q621.30 4.10 621.30 6.20L621.30 6.20Q621.30 8.30 619.90 9.75Q618.50 11.20 616.20 11.20L616.20 11.20Q613.90 11.20 612.45 9.75Q611 8.30 611 6.20ZM678.70 43.90L678.70 43.90Q678.70 49.50 677.10 54Q675.50 58.50 672.55 61.70Q669.60 64.90 665.40 66.60Q661.20 68.30 656.00 68.30L656.00 68.30Q650.80 68.30 646.60 66.60Q642.40 64.90 639.40 61.70Q636.40 58.50 634.80 54Q633.20 49.50 633.20 43.90L633.20 43.90Q633.20 38.30 634.85 33.80Q636.50 29.30 639.50 26.10Q642.50 22.90 646.70 21.20Q650.90 19.50 656.00 19.50L656.00 19.50Q661.10 19.50 665.30 21.20Q669.50 22.90 672.45 26.10Q675.40 29.30 677.05 33.80Q678.70 38.30 678.70 43.90ZM656.00 26.10L656.00 26.10Q649.20 26.10 645.30 30.80Q641.40 35.50 641.40 43.90L641.40 43.90Q641.40 52.40 645.25 57.05Q649.10 61.70 656.00 61.70L656.00 61.70Q662.90 61.70 666.70 57Q670.50 52.30 670.50 43.90L670.50 43.90Q670.50 35.50 666.65 30.80Q662.80 26.10 656.00 26.10Z"></path></svg>